<?xml version="1.0" encoding="UTF-8"?>
<svg width="24px" height="24px" viewBox="0 0 24 24" version="1.1" xmlns="http://www.w3.org/2000/svg" xmlns:xlink="http://www.w3.org/1999/xlink">
    <!-- Generator: Sketch 55.1 (78136) - https://sketchapp.com -->
    <title>Artboard Copy</title>
    <desc>Created with Sketch.</desc>
    <g id="Artboard-Copy" stroke="none" stroke-width="1" fill="none" fill-rule="evenodd">
        <g id="Image/ic_image">
            <g id="ic_image">
                <polygon id="Bounds" points="0 0 24 0 24 24 0 24"></polygon>
                <path d="M24,21.3333333 L24,2.66666667 C24,1.2 22.8,0 21.3333333,0 L2.66666667,0 C1.2,0 0,1.2 0,2.66666667 L0,21.3333333 C0,22.8 1.2,24 2.66666667,24 L21.3333333,24 C22.8,24 24,22.8 24,21.3333333 L24,21.3333333 Z M7.33333333,14 L10.6666667,18.0133333 L15.3333333,12 L21.3333333,20 L2.66666667,20 L7.33333333,14 L7.33333333,14 Z" id="Icon" fill="#000000"></path>
            </g>
        </g>
    </g>
</svg>